<mxfile host="Electron" agent="Mozilla/5.0 (Windows NT 10.0; Win64; x64) AppleWebKit/537.36 (KHTML, like Gecko) draw.io/28.2.7 Chrome/138.0.7204.251 Electron/37.7.1 Safari/537.36" version="28.2.7">
  <diagram name="第 1 页" id="VX8x2q7U5yT6BQhmhuAg">
    <mxGraphModel dx="86" dy="65" grid="1" gridSize="1" guides="1" tooltips="1" connect="1" arrows="1" fold="1" page="1" pageScale="1" pageWidth="48" pageHeight="48" background="#464647" math="0" shadow="0">
      <root>
        <mxCell id="0" />
        <mxCell id="1" parent="0" />
        <mxCell id="lyHdZdXMzcT8fDuYrFmd-1" value="" style="ellipse;whiteSpace=wrap;html=1;aspect=fixed;fillColor=none;strokeColor=#E6E6E6;strokeWidth=2;" parent="1" vertex="1">
          <mxGeometry x="3.94" y="3.94" width="39.37" height="39.37" as="geometry" />
        </mxCell>
        <mxCell id="finbWoGEWSN0HgJOC9UW-1" value="" style="ellipse;whiteSpace=wrap;html=1;aspect=fixed;strokeColor=none;fillColor=#E6E6E6;" vertex="1" parent="1">
          <mxGeometry x="21" y="1" width="6" height="6" as="geometry" />
        </mxCell>
        <mxCell id="finbWoGEWSN0HgJOC9UW-2" value="" style="ellipse;whiteSpace=wrap;html=1;aspect=fixed;strokeColor=none;fillColor=#E6E6E6;" vertex="1" parent="1">
          <mxGeometry x="20.62" y="40" width="6" height="6" as="geometry" />
        </mxCell>
      </root>
    </mxGraphModel>
  </diagram>
</mxfile>
